PathFileType	4	(X/Y/Z)	RUN4
DataRate	CameraRate	NumFrames	NumMarkers	Units	OrigDataRate	OrigDataStartFrame	OrigNumFrames
100	100	8	42	mm	100	23	128
Frame#	Time	LPSI			RPSI			RTH2			RTH3			LTH1			LTH2			LTH3			RTB1			RTB2			LTB1			LTB2			RCAL			RTOE			RMT5			LCAL			LTOE			LMT5			LACR			RACR			CLAV			C7			RUA1			RUA2			RUA3			RLEL			LUA1			LUA2			LUA3			LLEL			LMEL			RFAsuperior			RFAulna			LFAsuperior			LFAradius			LFAulna			RASI			RTB3			LTB3			RMEL			RFAradius			RTH1			LASI		
		X1	Y1	Z1	X2	Y2	Z2	X3	Y3	Z3	X4	Y4	Z4	X5	Y5	Z5	X6	Y6	Z6	X7	Y7	Z7	X8	Y8	Z8	X9	Y9	Z9	X10	Y10	Z10	X11	Y11	Z11	X12	Y12	Z12	X13	Y13	Z13	X14	Y14	Z14	X15	Y15	Z15	X16	Y16	Z16	X17	Y17	Z17	X18	Y18	Z18	X19	Y19	Z19	X20	Y20	Z20	X21	Y21	Z21	X22	Y22	Z22	X23	Y23	Z23	X24	Y24	Z24	X25	Y25	Z25	X26	Y26	Z26	X27	Y27	Z27	X28	Y28	Z28	X29	Y29	Z29	X30	Y30	Z30	X31	Y31	Z31	X32	Y32	Z32	X33	Y33	Z33	X34	Y34	Z34	X35	Y35	Z35	X36	Y36	Z36	X37	Y37	Z37	X38	Y38	Z38	X39	Y39	Z39	X40	Y40	Z40	X41	Y41	Z41	X42	Y42	Z42	

23	  0.230000	878.948715	1067.420124	-433.885912	852.806542	1068.976616	-325.603074	938.504542	752.010120	-209.963988	1042.882660	627.848053	-211.866174	990.638530	868.478303	-517.927387	896.331987	725.207193	-485.553801	938.381842	587.499736	-485.356811	1146.906617	394.252157	-292.226695	1062.769873	346.172700	-232.049604	839.592045	415.469262	-435.294957	730.964018	500.367044	-486.386340	967.397158	 95.849552	-338.628671	1208.880915	 74.294754	-358.091093	1162.491649	 49.885346	-268.777048	497.261347	556.403251	-426.185417	450.313359	323.885389	-436.858302	418.916913	382.305421	-527.565440	1005.950837	1512.687976	-493.179047	984.520454	1477.074014	-172.965721	1054.620474	1452.103598	-296.561058	934.430016	1519.201287	-343.357406	851.568476	1406.370272	-126.434751	879.978852	1341.098680	-87.074139	791.422010	1287.434787	-58.325195	744.398603	1236.062969	-38.961823	914.466840	1421.186205	-563.842757	947.233047	1347.559784	-592.796315	878.630652	1288.866287	-632.584907	862.872733	1224.423380	-657.372641	826.755256	1202.810774	-576.795511	828.087547	1166.825336	-29.376221	950.817667	1064.486745	-65.047147	925.623178	1170.480423	-636.793854	1067.939039	1167.108688	-509.511359	1066.489908	1102.798590	-545.573199	995.157090	1024.495109	-227.822338	1100.095621	210.324721	-325.427543	621.476639	434.053263	-449.344981	750.021552	1208.108848	-123.474449	986.224583	1111.575563	-101.198660	929.085172	904.653160	-177.692456	1046.909363	1001.310810	-463.902787	
24	  0.240000	874.005784	1061.878162	-435.403032	848.893368	1062.649352	-326.618555	936.206929	745.924939	-211.421781	1040.558688	621.778393	-214.105314	990.468563	862.394158	-516.861123	905.897518	714.552725	-486.616766	955.281161	580.372905	-487.218653	1133.981866	388.258942	-297.634404	1049.520831	346.319074	-233.656320	864.674532	410.482453	-437.374715	756.840092	496.388314	-488.868949	929.627761	 98.053700	-339.964569	1171.436446	 72.871600	-361.640551	1123.688617	 49.967290	-270.014820	522.057230	555.058402	-423.921383	478.583524	322.293974	-440.714366	448.423736	382.262485	-530.720993	1003.904211	1505.490153	-493.053708	985.928198	1469.061107	-170.632561	1055.335140	1444.239535	-296.026874	934.740899	1513.050378	-340.522228	856.013518	1391.904960	-118.704128	888.421064	1326.414906	-84.072448	802.932709	1269.007369	-52.673472	757.059682	1218.230486	-32.024586	910.568251	1413.825711	-561.305389	942.233259	1339.557352	-591.278769	872.820790	1280.833373	-629.454995	855.595684	1217.308288	-654.946172	820.860779	1196.250359	-573.615086	840.836537	1148.390036	-24.454753	964.218074	1048.180914	-64.380526	915.739836	1158.328130	-636.855884	1060.627849	1143.172979	-511.886712	1055.204966	1081.195507	-551.654496	991.723471	1017.512909	-225.612067	1073.816800	209.036776	-329.327227	647.160280	431.601261	-449.649806	761.103348	1190.218335	-116.746416	998.561700	1095.880882	-100.099869	924.328338	899.196225	-177.119902	1043.365903	995.932070	-465.620239	
25	  0.250000	869.133216	1057.276522	-435.885589	845.451915	1057.064535	-326.735377	932.724727	740.452695	-213.068834	1035.920427	615.157383	-216.646402	990.152884	858.028605	-516.515409	915.639876	705.916206	-487.864975	973.052151	575.307463	-489.295315	1118.224780	380.341450	-302.541417	1032.782316	344.259821	-235.991537	890.976020	406.702232	-439.137411	782.831748	492.516885	-491.189333	891.320357	 99.745654	-340.680338	1133.309140	 72.145881	-364.606259	1084.608083	 49.903433	-270.777784	546.338652	551.520757	-422.320772	508.647203	318.050832	-443.621214	479.345052	378.740470	-533.422367	1002.079755	1499.003204	-492.763786	987.068843	1461.868029	-168.746464	1055.757415	1437.391300	-295.564743	935.042584	1507.912355	-338.306137	861.962789	1378.136016	-112.787044	896.924891	1313.242975	-81.340417	814.808297	1251.821066	-47.353951	770.812638	1200.768302	-25.252815	906.981601	1407.553134	-559.013889	937.314409	1332.577890	-589.558590	866.847160	1274.071324	-626.037485	848.325915	1211.254861	-651.972040	814.801471	1190.625509	-570.092809	855.119185	1130.534009	-19.869138	978.506241	1032.269084	-64.039808	905.747294	1147.688436	-636.587069	1051.814385	1119.980018	-514.004032	1042.966913	1059.979095	-556.430586	989.040288	1011.606758	-223.293461	1044.696427	205.695997	-331.845062	673.800039	428.209334	-449.935130	773.397235	1172.740599	-110.228740	1011.766878	1080.373990	-99.792438	921.272826	894.141930	-176.961574	1038.886381	991.559270	-467.190410	
26	  0.260000	864.645175	1053.951557	-435.051015	842.784309	1053.001263	-325.585701	927.484503	736.095179	-214.546114	1027.889623	608.143532	-219.311896	989.326857	856.003716	-517.254562	925.674739	700.256610	-489.362725	991.904589	573.463497	-491.414736	1098.359609	370.648375	-306.977043	1011.424787	339.695191	-238.980560	918.918426	404.897685	-440.380034	808.920069	488.732769	-493.190339	852.469539	100.942089	-340.797393	1094.410073	 72.005422	-366.498306	1045.247679	 49.673034	-271.004823	569.673609	544.646332	-421.683989	541.465292	309.929648	-445.115502	512.156030	370.085785	-535.310827	1000.461412	1493.702051	-492.335659	988.087725	1455.955091	-167.487493	1055.846931	1432.090911	-295.255983	935.129872	1504.094337	-336.892576	869.573331	1365.832326	-109.526000	905.467692	1302.608740	-78.980492	827.206943	1236.909830	-42.552443	786.264275	1184.449891	-18.804056	903.685987	1402.998918	-557.118621	932.435267	1327.174989	-587.564511	860.438143	1269.491892	-622.345241	840.813128	1207.163509	-648.436279	808.406505	1186.713954	-566.276259	871.900918	1114.570123	-16.056676	994.294877	1017.714923	-64.200292	895.579865	1139.905747	-635.899007	1040.807290	1098.782643	-515.917663	1029.153700	1040.196132	-559.355072	987.419350	1007.123887	-221.151118	1012.145233	200.411372	-332.966476	701.589148	423.461888	-450.033943	787.444180	1156.462037	-104.003301	1026.260779	1065.823967	-100.960217	920.255738	889.882891	-177.251723	1033.686614	988.535062	-468.417209	
27	  0.270000	860.901258	1051.796041	-433.348971	840.882421	1051.039871	-323.449592	920.553261	733.126237	-215.244072	1016.687362	601.529865	-221.589025	987.683095	855.802851	-518.954063	936.095279	697.501178	-491.238370	1011.370688	575.006932	-493.153147	1074.779925	361.169579	-311.027806	986.565325	334.270270	-241.883400	948.031596	405.390805	-440.943298	834.963473	485.024701	-494.727920	813.559473	102.048115	-340.841222	1055.242611	 71.836058	-367.242054	1005.899467	 49.386122	-270.981064	591.925759	534.384008	-421.903001	577.042640	298.317204	-445.240720	546.383750	356.652141	-536.152188	998.785751	1489.854053	-491.939058	989.521478	1451.511096	-166.748796	1055.822835	1428.415582	-295.175106	934.801405	1501.412190	-335.940038	877.690423	1355.778183	-108.348868	914.128604	1294.827526	-77.046294	840.098170	1224.976094	-38.389989	803.220080	1170.476461	-12.913929	900.246725	1400.379909	-555.578982	927.272595	1323.597075	-585.475922	853.191761	1267.569072	-618.705647	832.465370	1205.673823	-644.864605	801.416595	1185.080924	-562.566899	890.983952	1102.160738	-13.432884	1011.753746	1006.202153	-64.985683	884.936478	1135.754272	-635.006269	1028.062047	1081.536513	-517.997144	1013.889925	1023.851578	-560.987257	986.697857	1003.896668	-219.650923	977.688333	195.128265	-333.719123	730.089912	417.522906	-449.685756	802.803308	1142.528070	-98.175756	1041.861659	1053.871235	-103.986552	920.047436	886.785215	-177.642030	1028.792387	986.708752	-469.163336	
28	  0.280000	857.930996	1050.833479	-431.369972	839.492101	1051.210744	-320.940218	912.232332	731.555881	-214.997768	1002.953794	596.054623	-223.192751	985.460852	856.676271	-521.135678	946.916784	697.347429	-493.742152	1030.774259	579.661540	-494.283560	1048.573054	353.676258	-314.277179	959.744736	329.870947	-244.089213	977.425291	408.283207	-440.650284	860.712064	481.622067	-495.709777	775.155793	103.339171	-341.205743	1016.470113	 71.342827	-367.257462	966.985128	 49.188923	-270.974770	613.343610	521.118854	-422.681869	614.826001	284.325696	-444.189596	581.307130	339.647501	-535.835743	996.725948	1487.683440	-491.687216	991.879090	1448.761303	-166.331828	1055.965266	1426.351779	-295.366639	934.186504	1499.876079	-334.916267	885.132207	1348.639322	-107.737494	923.173730	1289.700255	-75.735509	853.292956	1216.401479	-35.072422	820.676533	1160.014632	 -7.983889	896.061560	1399.826058	-554.143275	921.256405	1322.233328	-583.704102	844.727714	1268.483239	-615.496186	822.647767	1207.103343	-641.874548	793.491174	1186.092545	-559.347388	910.884410	1094.276790	-12.185925	1030.518225	999.611785	-66.697630	873.201777	1135.180254	-634.263549	1014.875246	1070.462075	-520.699868	998.160681	1013.433042	-562.598346	986.539900	1001.869528	-219.099889	943.091760	191.535482	-334.842393	758.918813	410.803262	-448.799639	818.306827	1132.012853	-93.158195	1057.935531	1046.703380	-108.738295	918.961007	885.111272	-177.765602	1024.835718	986.064459	-469.487364	
29	  0.290000	855.484345	1051.419390	-429.428299	838.413300	1052.995837	-318.564117	902.751780	731.292178	-214.221868	986.993184	591.966985	-224.339161	983.488444	858.517347	-523.262704	957.882742	699.770283	-496.831292	1049.592347	587.216474	-494.947367	1020.595005	348.346866	-316.219923	931.634934	327.164852	-245.577359	1006.326095	413.551522	-439.469903	885.818996	478.930107	-496.130120	737.494806	104.936951	-341.791707	978.373103	 70.732745	-367.093184	928.672440	 49.161258	-271.072519	634.431063	505.102080	-423.710061	654.314805	268.866231	-442.015483	616.749083	320.050099	-534.365908	994.063168	1487.438045	-491.540145	995.281371	1448.046844	-166.131943	1056.443126	1426.022391	-295.866043	933.691646	1499.868700	-333.552626	891.792575	1344.859108	-106.330643	932.722268	1287.006725	-75.285348	866.370063	1211.335889	-32.836673	837.277087	1153.619237	 -4.484854	890.744063	1401.531567	-552.446726	913.913975	1323.668753	-582.634278	834.931251	1272.299702	-612.868517	811.181938	1211.493569	-639.718544	784.388820	1189.958100	-556.680500	929.686722	1090.887659	-12.293808	1049.761183	999.199149	-69.888902	860.008271	1137.751144	-633.866889	1002.584984	1067.120393	-524.332122	983.203950	1010.810967	-565.277228	986.727278	1001.203887	-219.648847	908.969644	189.864784	-336.215766	788.135131	403.619309	-447.626360	832.787626	1125.497277	-89.621237	1073.710421	1046.210995	-114.629149	916.288231	884.903509	-177.600225	1021.650895	986.952433	-469.628867	
30	  0.300000	853.477782	1053.896748	-427.596023	837.714067	1055.763202	-316.483113	892.340423	732.355689	-213.440235	968.906359	589.235831	-225.428614	982.622933	861.886332	-525.017128	968.441308	704.781342	-499.857940	1067.415807	597.520875	-495.413360	991.264688	344.410559	-316.943382	902.207541	325.818891	-246.652718	1034.266103	420.955211	-437.711049	909.911718	477.153369	-496.049668	700.385755	107.298197	-342.171466	940.623804	 70.273473	-367.142921	890.580127	 49.276289	-271.318409	655.677351	486.409201	-424.660362	695.411862	252.448956	-438.708417	653.261829	298.464346	-531.840613	990.764816	1489.282630	-491.388456	999.460455	1449.597412	-166.159115	1057.280583	1427.586778	-296.740040	933.606853	1501.699078	-332.002150	898.443542	1344.531397	-103.767489	942.391781	1286.791226	-75.664547	878.727621	1209.685627	-31.736257	852.043132	1151.035385	 -2.663390	884.376278	1405.611789	-550.191074	905.268477	1328.249980	-582.302473	824.119886	1278.972300	-610.714118	798.575274	1218.702436	-638.148563	774.173510	1196.706422	-554.327031	946.289860	1091.579718	-13.712814	1068.486752	1005.055852	-75.096838	845.887282	1143.369669	-633.650596	991.807608	1071.551007	-528.846067	969.635681	1016.186916	-569.225800	987.232683	1001.949546	-221.212599	874.925596	189.497789	-337.292772	817.882192	396.105993	-446.545676	845.719567	1122.966549	-87.999373	1088.544336	1053.049492	-121.038288	912.782538	885.922827	-177.480340	1018.942413	989.730130	-469.849014	
